<?xml version="1.0" encoding="UTF-8" standalone="no"?><svg xmlns="http://www.w3.org/2000/svg" xmlns:xlink="http://www.w3.org/1999/xlink" contentScriptType="application/ecmascript" contentStyleType="text/css" height="158px" preserveAspectRatio="none" style="width:882px;height:158px;" version="1.1" viewBox="0 0 882 158" width="882px" zoomAndPan="magnify"><defs><filter height="300%" id="f15lcjbgfd6xso" width="300%" x="-1" y="-1"><feGaussianBlur result="blurOut" stdDeviation="2.0"/><feColorMatrix in="blurOut" result="blurOut2" type="matrix" values="0 0 0 0 0 0 0 0 0 0 0 0 0 0 0 0 0 0 .4 0"/><feOffset dx="4.0" dy="4.0" in="blurOut2" result="blurOut3"/><feBlend in="SourceGraphic" in2="blurOut3" mode="normal"/></filter></defs><g><!--entity mastermind--><polygon fill="#FFFFFF" filter="url(#f15lcjbgfd6xso)" points="6,106,85,106,92,129.6094,109,129.6094,109,146.6094,6,146.6094,6,106" style="stroke: #000000; stroke-width: 1.5;"/><line style="stroke: #000000; stroke-width: 1.5;" x1="6" x2="92" y1="129.6094" y2="129.6094"/><text fill="#000000" font-family="sans-serif" font-size="14" lengthAdjust="spacingAndGlyphs" textLength="73" x="10" y="123.5332">mastermind</text><!--entity mastermind.models--><polygon fill="#FFFFFF" filter="url(#f15lcjbgfd6xso)" points="144.5,106,272.5,106,279.5,129.6094,296.5,129.6094,296.5,146.6094,144.5,146.6094,144.5,106" style="stroke: #000000; stroke-width: 1.5;"/><line style="stroke: #000000; stroke-width: 1.5;" x1="144.5" x2="279.5" y1="129.6094" y2="129.6094"/><text fill="#000000" font-family="sans-serif" font-size="14" lengthAdjust="spacingAndGlyphs" textLength="122" x="148.5" y="123.5332">mastermind.models</text><!--entity mastermind.views--><polygon fill="#FFFFFF" filter="url(#f15lcjbgfd6xso)" points="332,106,449,106,456,129.6094,473,129.6094,473,146.6094,332,146.6094,332,106" style="stroke: #000000; stroke-width: 1.5;"/><line style="stroke: #000000; stroke-width: 1.5;" x1="332" x2="456" y1="129.6094" y2="129.6094"/><text fill="#000000" font-family="sans-serif" font-size="14" lengthAdjust="spacingAndGlyphs" textLength="111" x="336" y="123.5332">mastermind.views</text><!--entity mastermind.utils--><polygon fill="#FFFFFF" filter="url(#f15lcjbgfd6xso)" points="508.5,106,616.5,106,623.5,129.6094,640.5,129.6094,640.5,146.6094,508.5,146.6094,508.5,106" style="stroke: #000000; stroke-width: 1.5;"/><line style="stroke: #000000; stroke-width: 1.5;" x1="508.5" x2="623.5" y1="129.6094" y2="129.6094"/><text fill="#000000" font-family="sans-serif" font-size="14" lengthAdjust="spacingAndGlyphs" textLength="102" x="512.5" y="123.5332">mastermind.utils</text><!--entity java.io--><polygon fill="#FFFFFF" filter="url(#f15lcjbgfd6xso)" points="676,106,723,106,730,129.6094,747,129.6094,747,146.6094,676,146.6094,676,106" style="stroke: #000000; stroke-width: 1.5;"/><line style="stroke: #000000; stroke-width: 1.5;" x1="676" x2="730" y1="129.6094" y2="129.6094"/><text fill="#000000" font-family="sans-serif" font-size="14" lengthAdjust="spacingAndGlyphs" textLength="41" x="680" y="123.5332">java.io</text><!--entity java.util--><polygon fill="#FFFFFF" filter="url(#f15lcjbgfd6xso)" points="782.5,106,836.5,106,843.5,129.6094,860.5,129.6094,860.5,146.6094,782.5,146.6094,782.5,106" style="stroke: #000000; stroke-width: 1.5;"/><line style="stroke: #000000; stroke-width: 1.5;" x1="782.5" x2="843.5" y1="129.6094" y2="129.6094"/><text fill="#000000" font-family="sans-serif" font-size="14" lengthAdjust="spacingAndGlyphs" textLength="48" x="786.5" y="123.5332">java.util</text><!--entity jar--><rect fill="#FEFECE" filter="url(#f15lcjbgfd6xso)" height="37.6094" style="stroke: #A80036; stroke-width: 1.5;" width="113" x="432" y="8"/><rect fill="#FEFECE" height="5" style="stroke: #A80036; stroke-width: 1.5;" width="10" x="427" y="13"/><rect fill="#FEFECE" height="5" style="stroke: #A80036; stroke-width: 1.5;" width="10" x="427" y="35.6094"/><text fill="#000000" font-family="sans-serif" font-size="14" lengthAdjust="spacingAndGlyphs" textLength="93" x="442" y="32.5332">mastermind.jar</text><!--link jar to mastermind--><path d="M418.695,41.678 C345.572,56.3238 227.52,80.8688 126.5,106 C124.903,106.3973 123.287,106.8055 121.659,107.2225 " fill="none" id="jar-mastermind" style="stroke: #A80036; stroke-width: 1.0;"/><polygon fill="#A80036" points="109.024,110.5548,118.7464,112.1281,113.8588,109.28,116.7068,104.3924,109.024,110.5548" style="stroke: #A80036; stroke-width: 1.0;"/><line style="stroke: #A80036; stroke-width: 1.0;" x1="113.8588" x2="121.594" y1="109.28" y2="107.2395"/><polygon fill="#A80036" points="431.812,39.06,425.1452,36.3116,420.0441,41.4086,426.7109,44.1569,431.812,39.06" style="stroke: #A80036; stroke-width: 1.0;"/><!--link jar to mastermind.models--><path d="M426.474,50.5655 C384.516,65.8299 329.172,85.9644 286.419,101.5183 " fill="none" id="jar-mastermind.models" style="stroke: #A80036; stroke-width: 1.0;"/><polygon fill="#A80036" points="274.151,105.9814,283.9762,106.6635,278.8497,104.272,281.2412,99.1456,274.151,105.9814" style="stroke: #A80036; stroke-width: 1.0;"/><line style="stroke: #A80036; stroke-width: 1.0;" x1="278.8497" x2="286.3675" y1="104.272" y2="101.5368"/><polygon fill="#A80036" points="438.719,46.111,431.7131,44.4032,427.442,50.2133,434.4479,51.9212,438.719,46.111" style="stroke: #A80036; stroke-width: 1.0;"/><!--link jar to mastermind.views--><path d="M463.627,56.1996 C452.648,68.6464 439.739,83.2808 428.621,95.8863 " fill="none" id="jar-mastermind.views" style="stroke: #A80036; stroke-width: 1.0;"/><polygon fill="#A80036" points="419.784,105.905,428.7371,101.8011,423.0913,102.1551,422.7373,96.5094,419.784,105.905" style="stroke: #A80036; stroke-width: 1.0;"/><line style="stroke: #A80036; stroke-width: 1.0;" x1="423.0913" x2="428.3835" y1="102.1551" y2="96.1556"/><polygon fill="#A80036" points="472.324,46.339,465.3553,48.193,464.3864,55.3387,471.3551,53.4847,472.324,46.339" style="stroke: #A80036; stroke-width: 1.0;"/><!--link jar to mastermind.utils--><path d="M513.373,56.1996 C524.352,68.6464 537.261,83.2808 548.379,95.8863 " fill="none" id="jar-mastermind.utils" style="stroke: #A80036; stroke-width: 1.0;"/><polygon fill="#A80036" points="557.216,105.905,554.2627,96.5094,553.9087,102.1551,548.2629,101.8011,557.216,105.905" style="stroke: #A80036; stroke-width: 1.0;"/><line style="stroke: #A80036; stroke-width: 1.0;" x1="553.9087" x2="548.6165" y1="102.1551" y2="96.1556"/><polygon fill="#A80036" points="504.676,46.339,505.6449,53.4847,512.6136,55.3387,511.6447,48.193,504.676,46.339" style="stroke: #A80036; stroke-width: 1.0;"/><!--link jar to java.io--><path d="M541.999,51.3909 C579.074,67.6007 628.005,88.9944 663.761,104.6274 " fill="none" id="jar-java.io" style="stroke: #A80036; stroke-width: 1.0;"/><polygon fill="#A80036" points="675.817,109.8987,669.1735,102.6279,671.2358,107.8955,665.9683,109.9578,675.817,109.8987" style="stroke: #A80036; stroke-width: 1.0;"/><line style="stroke: #A80036; stroke-width: 1.0;" x1="671.2358" x2="663.906" y1="107.8955" y2="104.6909"/><polygon fill="#A80036" points="529.922,46.111,533.8168,52.1798,540.9168,50.9188,537.022,44.85,529.922,46.111" style="stroke: #A80036; stroke-width: 1.0;"/><!--link jar to java.util--><path d="M557.681,46.434 C613.69,61.6258 694.496,84.1513 764.5,106 C766.219,106.5365 767.965,107.0891 769.726,107.6532 " fill="none" id="jar-java.util" style="stroke: #A80036; stroke-width: 1.0;"/><polygon fill="#A80036" points="782.344,111.7927,775.0396,105.1863,777.5932,110.2339,772.5455,112.7876,782.344,111.7927" style="stroke: #A80036; stroke-width: 1.0;"/><line style="stroke: #A80036; stroke-width: 1.0;" x1="777.5932" x2="769.9915" y1="110.2339" y2="107.7403"/><polygon fill="#A80036" points="545.06,43.021,549.8081,48.4483,556.6441,46.1528,551.896,40.7255,545.06,43.021" style="stroke: #A80036; stroke-width: 1.0;"/><!--
@startuml

package "  "  as mastermind {
}
package "  "  as mastermind.models {
}
package "  "  as mastermind.views {
}
package "  "  as mastermind.utils {
}
package "  "  as java.io {
}
package "  "  as java.util {
}

[mastermind.jar] as jar

jar *- -> mastermind
jar *- -> mastermind.models
jar *- -> mastermind.views
jar *- -> mastermind.utils
jar *- -> java.io
jar *- -> java.util
@enduml

PlantUML version 1.2019.05(Sat Apr 20 18:45:36 CEST 2019)
(GPL source distribution)
Java Runtime: OpenJDK Runtime Environment
JVM: OpenJDK 64-Bit Server VM
Java Version: 1.8.0_222-b10
Operating System: Windows 10
OS Version: 10.0
Default Encoding: windows-1252
Language: es
Country: ES
--></g></svg>